<svg width="42" height="42" viewBox="0 0 42 42" fill="none" xmlns="http://www.w3.org/2000/svg">
<path opacity="0.1" fill-rule="evenodd" clip-rule="evenodd" d="M20.877 40.9318C31.9099 40.9318 40.8538 31.9941 40.8538 20.9688C40.8538 9.94358 31.9099 1.00586 20.877 1.00586C9.84408 1.00586 0.900146 9.94358 0.900146 20.9688C0.900146 31.9941 9.84408 40.9318 20.877 40.9318Z" stroke="black" stroke-width="1.5"/>
<path d="M21.5972 14.0059C22.3852 14.008 22.7851 14.0122 23.1305 14.022L23.2663 14.0269C23.4232 14.0325 23.578 14.0395 23.7651 14.0479C24.5103 14.0829 25.0189 14.2005 25.4651 14.3734C25.9274 14.5511 26.3168 14.7919 26.7063 15.1804C27.0624 15.5304 27.338 15.9536 27.5139 16.4208C27.6869 16.8667 27.8046 17.3749 27.8396 18.1204C27.848 18.3066 27.855 18.4613 27.8606 18.6188L27.8648 18.7545C27.8753 19.0989 27.8795 19.4986 27.8809 20.2861L27.8816 20.8083V21.7253C27.8833 22.2359 27.878 22.7464 27.8655 23.2568L27.8613 23.3926C27.8557 23.5501 27.8487 23.7048 27.8403 23.891C27.8053 24.6365 27.6862 25.144 27.5139 25.5906C27.3385 26.058 27.0629 26.4814 26.7063 26.831C26.356 27.1868 25.9325 27.4622 25.4651 27.638C25.0189 27.8109 24.5103 27.9285 23.7651 27.9635C23.5989 27.9714 23.4326 27.9784 23.2663 27.9845L23.1305 27.9887C22.7851 27.9985 22.3852 28.0034 21.5972 28.0048L21.0746 28.0055H20.1577C19.6466 28.0073 19.1354 28.0019 18.6245 27.9894L18.4886 27.9852C18.3223 27.9789 18.156 27.9717 17.9898 27.9635C17.2446 27.9285 16.736 27.8109 16.2892 27.638C15.8217 27.4626 15.3983 27.1871 15.0487 26.831C14.6922 26.4812 14.4163 26.0579 14.2403 25.5906C14.0673 25.1447 13.9496 24.6365 13.9146 23.891C13.9068 23.7249 13.8998 23.5588 13.8936 23.3926L13.8901 23.2568C13.8772 22.7464 13.8714 22.2359 13.8726 21.7253V20.2861C13.8706 19.7755 13.8758 19.265 13.888 18.7545L13.8929 18.6188C13.8985 18.4613 13.9055 18.3066 13.9139 18.1204C13.9489 17.3749 14.0666 16.8674 14.2396 16.4208C14.4155 15.9531 14.6919 15.5297 15.0494 15.1804C15.3989 14.8245 15.8221 14.549 16.2892 14.3734C16.736 14.2005 17.2439 14.0829 17.9898 14.0479C18.1762 14.0395 18.3317 14.0325 18.4886 14.0269L18.6245 14.0227C19.1352 14.0102 19.6461 14.0049 20.157 14.0066L21.5972 14.0059ZM20.8771 17.5058C19.9482 17.5058 19.0574 17.8745 18.4006 18.5309C17.7438 19.1872 17.3748 20.0775 17.3748 21.0057C17.3748 21.9339 17.7438 22.8242 18.4006 23.4805C19.0574 24.1369 19.9482 24.5056 20.8771 24.5056C21.806 24.5056 22.6968 24.1369 23.3536 23.4805C24.0104 22.8242 24.3794 21.9339 24.3794 21.0057C24.3794 20.0775 24.0104 19.1872 23.3536 18.5309C22.6968 17.8745 21.806 17.5058 20.8771 17.5058ZM20.8771 18.9057C21.1531 18.9057 21.4263 18.96 21.6813 19.0655C21.9362 19.171 22.1679 19.3256 22.3631 19.5206C22.5582 19.7155 22.7131 19.947 22.8187 20.2018C22.9244 20.4565 22.9788 20.7296 22.9788 21.0053C22.9789 21.2811 22.9245 21.5542 22.819 21.809C22.7134 22.0638 22.5587 22.2953 22.3636 22.4903C22.1685 22.6854 21.9369 22.8401 21.6819 22.9457C21.427 23.0512 21.1538 23.1056 20.8778 23.1056C20.3205 23.1056 19.786 22.8844 19.3919 22.4906C18.9978 22.0968 18.7765 21.5626 18.7765 21.0057C18.7765 20.4488 18.9978 19.9146 19.3919 19.5208C19.786 19.127 20.3205 18.9057 20.8778 18.9057M24.5552 16.4558C24.323 16.4558 24.1003 16.548 23.9361 16.7121C23.7719 16.8762 23.6796 17.0987 23.6796 17.3308C23.6796 17.5628 23.7719 17.7854 23.9361 17.9495C24.1003 18.1136 24.323 18.2058 24.5552 18.2058C24.7874 18.2058 25.0101 18.1136 25.1743 17.9495C25.3385 17.7854 25.4307 17.5628 25.4307 17.3308C25.4307 17.0987 25.3385 16.8762 25.1743 16.7121C25.0101 16.548 24.7874 16.4558 24.5552 16.4558Z" fill="black"/>
</svg>
