<svg width="42" height="42" viewBox="0 0 42 42" fill="none" xmlns="http://www.w3.org/2000/svg">
<path opacity="0.1" fill-rule="evenodd" clip-rule="evenodd" d="M20.8003 40.9318C31.8332 40.9318 40.7772 31.9941 40.7772 20.9688C40.7772 9.94358 31.8332 1.00586 20.8003 1.00586C9.76742 1.00586 0.823486 9.94358 0.823486 20.9688C0.823486 31.9941 9.76742 40.9318 20.8003 40.9318Z" stroke="black" stroke-width="1.5"/>
<path d="M16.2155 16.9386C17.1508 16.9386 17.909 16.181 17.909 15.2463C17.909 14.3116 17.1508 13.554 16.2155 13.554C15.2802 13.554 14.522 14.3116 14.522 15.2463C14.522 16.181 15.2802 16.9386 16.2155 16.9386Z" fill="black"/>
<path d="M17.6266 18.0691H14.8041C14.6483 18.0691 14.5219 18.1955 14.5219 18.3511V26.8129C14.5219 26.9686 14.6483 27.0949 14.8041 27.0949H17.6266C17.7824 27.0949 17.9089 26.9686 17.9089 26.8129V18.3511C17.9089 18.1955 17.7824 18.0691 17.6266 18.0691Z" fill="black"/>
<path d="M26.0378 17.5998C24.8315 17.1869 23.3225 17.5496 22.4176 18.2C22.3866 18.0787 22.2759 17.9885 22.1444 17.9885H19.3219C19.1661 17.9885 19.0396 18.1148 19.0396 18.2705V26.7322C19.0396 26.8879 19.1661 27.0143 19.3219 27.0143H22.1444C22.3002 27.0143 22.4267 26.8879 22.4267 26.7322V20.6511C22.8828 20.2585 23.4704 20.1332 23.9514 20.3374C24.4177 20.5343 24.6847 21.0149 24.6847 21.6552V26.7322C24.6847 26.8879 24.8111 27.0143 24.9669 27.0143H27.7895C27.9453 27.0143 28.0717 26.8879 28.0717 26.7322V21.0871C28.0396 18.7692 26.9484 17.9112 26.0378 17.5998Z" fill="black"/>
</svg>
