<svg width="42" height="42" viewBox="0 0 42 42" fill="none" xmlns="http://www.w3.org/2000/svg">
<path opacity="0.1" fill-rule="evenodd" clip-rule="evenodd" d="M20.9536 40.9318C31.9865 40.9318 40.9305 31.9941 40.9305 20.9688C40.9305 9.94358 31.9865 1.00586 20.9536 1.00586C9.92074 1.00586 0.976807 9.94358 0.976807 20.9688C0.976807 31.9941 9.92074 40.9318 20.9536 40.9318Z" stroke="black" stroke-width="1.5"/>
<path d="M27.4834 17.2781C27.3907 17.1734 27.2413 17.1471 27.1187 17.2117C27.0424 17.2518 26.8991 17.3045 26.7289 17.3565C26.9436 17.0631 27.1162 16.7345 27.1925 16.4392C27.2254 16.312 27.1772 16.1778 27.0723 16.1019C26.9674 16.0267 26.8277 16.0267 26.7228 16.1019C26.5575 16.2204 25.7597 16.5766 25.2552 16.6919C24.1152 15.6656 22.7885 15.559 21.4094 16.3866C20.2882 17.0593 20.0443 18.4273 20.0918 19.2612C17.5257 19.0073 15.9306 17.6142 15.0328 16.4612C14.9699 16.3803 14.8687 16.3377 14.7735 16.3439C14.6735 16.3515 14.5832 16.4085 14.532 16.4969C14.1074 17.2336 13.9897 18.048 14.1928 18.8524C14.3039 19.2913 14.4978 19.6781 14.7229 19.9916C14.6149 19.9371 14.5106 19.8687 14.4124 19.7872C14.3222 19.7107 14.1959 19.6963 14.0891 19.7471C13.983 19.7991 13.9153 19.9095 13.9153 20.0305C13.9153 21.4117 14.7558 22.3333 15.5409 22.8148C15.414 22.7991 15.2816 22.7703 15.148 22.7283C15.0334 22.6925 14.9089 22.7283 14.8296 22.8211C14.7503 22.9132 14.7314 23.0449 14.7808 23.1571C15.2219 24.1596 16.0575 24.8493 17.0914 25.0995C16.1887 25.6443 14.9803 25.9114 13.8738 25.7803C13.7305 25.7596 13.5938 25.8531 13.5487 25.9947C13.5036 26.1364 13.5627 26.2919 13.689 26.3647C15.3676 27.3333 16.8852 27.6794 18.1967 27.6794C20.1053 27.6794 21.5783 26.9471 22.475 26.3346C24.8923 24.6857 26.3989 21.7251 26.1891 19.0762C26.5764 18.7822 27.1559 18.2393 27.5152 17.6556C27.5896 17.5377 27.5761 17.3822 27.4834 17.2781Z" fill="black"/>
</svg>
